HIERARCHY
ROOT Hips
{
	OFFSET -0.001795 -0.223333 0.028219
	CHANNELS 6 Xposition Yposition Zposition Zrotation Yrotation Xrotation 
	JOINT LeftUpLeg
	{
		OFFSET 0.069520 -0.091406 -0.006815
		CHANNELS 3 Zrotation Yrotation Xrotation
		JOINT LeftLeg
		{
			OFFSET 0.034277 -0.375199 -0.004496
			CHANNELS 3 Zrotation Yrotation Xrotation
			JOINT LeftFoot
			{
				OFFSET -0.013596 -0.397961 -0.043693
				CHANNELS 3 Zrotation Yrotation Xrotation
				JOINT LeftToe
				{
					OFFSET 0.026358 -0.055791 0.119288
					CHANNELS 3 Zrotation Yrotation Xrotation
					End Site
					{
						OFFSET 0.000000 0.000000 0.000000
					}
				}
			}
		}
	}
	JOINT RightUpLeg
	{
		OFFSET -0.067670 -0.090522 -0.004320
		CHANNELS 3 Zrotation Yrotation Xrotation
		JOINT RightLeg
		{
			OFFSET -0.038290 -0.382569 -0.008850
			CHANNELS 3 Zrotation Yrotation Xrotation
			JOINT RightFoot
			{
				OFFSET 0.015774 -0.398415 -0.042312
				CHANNELS 3 Zrotation Yrotation Xrotation
				JOINT RightToe
				{
					OFFSET -0.025372 -0.048144 0.123348
					CHANNELS 3 Zrotation Yrotation Xrotation
					End Site
					{
						OFFSET 0.000000 0.000000 0.000000
					}
				}
			}
		}
	}
	JOINT Spine
	{
		OFFSET -0.002533 0.108963 -0.026696
		CHANNELS 3 Zrotation Yrotation Xrotation
		JOINT Spine1
		{
			OFFSET 0.005487 0.135180 0.001092
			CHANNELS 3 Zrotation Yrotation Xrotation
			JOINT Spine2
			{
				OFFSET 0.001457 0.052922 0.025425
				CHANNELS 3 Zrotation Yrotation Xrotation
				JOINT Neck
				{
					OFFSET -0.002778 0.213870 -0.042857
					CHANNELS 3 Zrotation Yrotation Xrotation
					JOINT Head
					{
						OFFSET 0.005152 0.064970 0.051349
						CHANNELS 3 Zrotation Yrotation Xrotation
						End Site
						{
							OFFSET 0.000000 0.000000 0.000000
						}
					}
				}
				JOINT LeftShoulder
				{
					OFFSET 0.078845 0.121749 -0.034090
					CHANNELS 3 Zrotation Yrotation Xrotation
					JOINT LeftArm
					{
						OFFSET 0.090977 0.030469 -0.008868
						CHANNELS 3 Zrotation Yrotation Xrotation
						JOINT LeftForeArm
						{
							OFFSET 0.259612 -0.012772 -0.027456
							CHANNELS 3 Zrotation Yrotation Xrotation
							JOINT LeftHand
							{
								OFFSET 0.249234 0.008986 -0.001171
								CHANNELS 3 Zrotation Yrotation Xrotation
								End Site
								{
									OFFSET 0.000000 0.000000 0.000000
								}
							}
						}
					}
				}
				JOINT RightShoulder
				{
					OFFSET -0.081759 0.118833 -0.038615
					CHANNELS 3 Zrotation Yrotation Xrotation
					JOINT RightArm
					{
						OFFSET -0.096012 0.032551 -0.009143
						CHANNELS 3 Zrotation Yrotation Xrotation
						JOINT RightForeArm
						{
							OFFSET -0.253742 -0.013329 -0.021401
							CHANNELS 3 Zrotation Yrotation Xrotation
							JOINT RightHand
							{
								OFFSET -0.255298 0.007772 -0.005559
								CHANNELS 3 Zrotation Yrotation Xrotation
								End Site
								{
									OFFSET 0.000000 0.000000 0.000000
								}
							}
						}
					}
				}
			}
		}
	}
}
MOTION
Frames: 5
Frame Time: 0.050000
0.000000 0.958198 0.000000 -0.092015 -21.877177 5.512202 3.431680 -0.437558 -11.153420 -0.585753 0.092819 5.596464 5.460082 11.065330 14.383528 0.000000 0.000000 0.000000 -10.836284 1.274616 -13.431766 8.088024 -0.407377 10.473928 -6.311062 -18.713415 13.346982 0.000000 0.000000 0.000000 4.500778 -0.734557 27.657005 -8.343015 2.512808 -16.648215 -0.892062 12.467085 28.807928 16.818111 -12.875036 -9.201777 0.000000 0.000000 0.000000 4.460872 -16.043237 5.043820 -50.807543 -8.967782 -4.596918 -132.235220 -49.931397 103.492218 0.000000 0.000000 0.000000 4.492685 12.755338 4.828178 31.930702 46.067850 6.394408 -55.785319 70.353785 -35.672857 0.000000 0.000000 0.000000 
-0.000215 0.957904 -0.001194 -0.339480 -21.338528 5.718810 4.757605 -0.273827 -11.146351 -1.671454 0.315795 6.012787 3.628057 8.124491 12.841668 0.000000 0.000000 0.000000 -9.616395 1.282782 -13.888317 6.278881 -0.178825 11.066300 -7.389222 -20.711858 15.195043 0.000000 0.000000 0.000000 5.097295 -0.944143 27.164949 -7.096817 2.126626 -16.618632 -0.851967 12.668017 29.771317 18.049486 -13.482537 -10.657153 0.000000 0.000000 0.000000 1.625830 -15.659365 5.271949 -47.449509 -8.878490 -4.599101 -136.687503 -46.922209 106.057791 0.000000 0.000000 0.000000 2.488729 11.738473 4.277334 37.526402 48.607761 9.247425 -51.488606 66.983145 -29.927689 0.000000 0.000000 0.000000 
-0.000509 0.957538 -0.001882 0.177103 -19.639789 6.017635 4.375480 -0.370713 -11.691700 -2.231128 0.418581 6.420602 4.476910 9.696730 11.670032 0.000000 0.000000 0.000000 -10.229037 1.184805 -12.800660 6.179544 -0.289654 7.888898 -7.410686 -20.762471 16.355942 0.000000 0.000000 0.000000 4.877116 -1.038266 25.783577 -4.960834 1.502864 -15.326247 -1.826707 12.176433 29.186369 18.394640 -13.575883 -11.217771 0.000000 0.000000 0.000000 0.400224 -16.045958 5.538417 -46.212742 -8.990853 -4.465481 -137.679146 -49.807377 110.716059 0.000000 0.000000 0.000000 4.588328 12.572939 4.841557 37.331931 49.489183 9.470492 -47.125097 66.243957 -26.321153 0.000000 0.000000 0.000000 
-0.000782 0.957146 -0.002267 0.345940 -19.173769 5.366598 4.496418 -0.351775 -11.039131 -2.096656 0.386307 6.564797 3.417282 7.990348 11.936381 0.000000 0.000000 0.000000 -10.687636 1.147126 -12.580611 6.502002 -0.331676 8.355583 -7.955166 -21.531423 16.710247 0.000000 0.000000 0.000000 6.125283 -1.356870 26.185369 -5.711831 1.802193 -14.260864 -2.015069 11.709119 29.311765 19.097099 -14.401042 -10.660985 0.000000 0.000000 0.000000 1.679814 -15.989732 5.359356 -47.079322 -8.400841 -4.755474 -141.675438 -49.571706 117.138125 0.000000 0.000000 0.000000 5.000583 11.632097 4.492377 39.265729 50.100933 10.442606 -44.289007 65.517900 -24.017394 0.000000 0.000000 0.000000 
-0.001032 0.956776 -0.002385 0.768569 -19.242845 4.872208 3.886929 -0.416689 -10.830719 -1.727533 0.330075 7.412499 3.704447 8.429829 11.256930 0.000000 0.000000 0.000000 -11.019007 1.129416 -12.264615 6.191125 -0.298323 8.169764 -7.591114 -21.047811 17.067716 0.000000 0.000000 0.000000 6.397153 -1.404584 26.191827 -6.171527 1.988655 -13.499977 -1.565678 11.501229 29.206576 18.409949 -13.827344 -10.670765 0.000000 0.000000 0.000000 1.773143 -14.949356 5.007812 -46.870641 -9.448157 -4.321380 -145.877855 -49.922287 124.802201 0.000000 0.000000 0.000000 5.355466 12.326762 4.768492 41.418233 50.663272 11.561765 -44.317520 64.436560 -23.494571 0.000000 0.000000 0.000000 
